<svg width="34" height="36" viewBox="0 0 34 36" fill="none" xmlns="http://www.w3.org/2000/svg">
<path d="M28.25 8C28.25 8 27.3891 22.577 26.8896 28.7173C26.6518 31.65 25.3247 33.3685 23.151 33.4226C19.0144 33.5243 14.873 33.5308 10.738 33.4118C8.64673 33.3534 7.34185 31.6132 7.10878 28.7324C6.60618 22.538 5.75 8 5.75 8M32 7.625H2M26.75 8C25.2814 8 24.0167 7.04557 23.7286 5.72313L23.2739 3.63199C22.9933 2.66724 22.0429 2 20.9597 2H13.0403C11.9571 2 11.0067 2.66724 10.7261 3.63199L10.2714 5.72313C9.98333 7.04557 8.71863 8 7.25 8" stroke="black" stroke-width="4" stroke-linecap="round" stroke-linejoin="round"/>
</svg>
